 http://channel.nationalgeographic.com/channel/doomsday-preppers/
 
http://channel.nationalgeographic.com/channel/doomsday-preppers/episode-guide/


General
Format                           : AVI
Format/Info                      : Audio Video Interleave
File size                        : 347 MiB
Duration                         : 45mn 10s
Overall bit rate                 : 1 073 Kbps

Video
ID                               : 0
Format                           : MPEG-4 Visual
Format profile                   : Advanced Simple@L5
Format settings, BVOP            : 1
Format settings, QPel            : No
Format settings, GMC             : No warppoints
Format settings, Matrix          : Default (H.263)
Muxing mode                      : Packed bitstream
Codec ID                         : XVID
Codec ID/Hint                    : XviD
Duration                         : 45mn 10s
Bit rate                         : 929 Kbps
Width                            : 624 pixels
Height                           : 352 pixels
Display aspect ratio             : 16:9
Frame rate                       : 29.970 fps
Color space                      : YUV
Chroma subsampling               : 4:2:0
Bit depth                        : 8 bits
Scan type                        : Progressive
Compression mode                 : Lossy
Bits/(Pixel*Frame)               : 0.141
Stream size                      : 300 MiB (87%)

Audio
ID                               : 1
Format                           : MPEG Audio
Format version                   : Version 1
Format profile                   : Layer 3
Mode                             : Joint stereo
Mode extension                   : MS Stereo
Codec ID                         : 55
Codec ID/Hint                    : MP3
Duration                         : 45mn 10s
Bit rate mode                    : Constant
Bit rate                         : 128 Kbps
Channel(s)                       : 2 channels
Sampling rate                    : 48.0 KHz
Compression mode                 : Lossy
Stream size                      : 41.4 MiB (12%)
Alignment                        : Aligned on interleaves
Interleave, duration             : 34 ms (1.01 video frame)
Interleave, preload duration     : 432 ms
